PathFileType	4	(X/Y/Z)	 s04c0102.trc
DataRate	CameraRate	NumFrames	NumMarkers	Units	OrigDataRate	OrigDataStartFrame	OrigNumFrames
200	200	6	50	mm	200	1751	2000
Frame#	Time	racr			lacr			c7			jug			rlel			rdr			llel			ldr			s2			lic			ric			lasi			rasi			rpsi			lpsi			rgt			lgt			rth1			rth2			rth3			rth4			rlfc			rmfc			rsh1			rsh2			rsh3			rsh4			rlmal			rmmal			rcal			rtoe			rmt5			lth1			lth2			lth4			lth3			llfc			lmfc			lsh1			lsh2			lsh3			lsh4			llmal			lmmal			lcal			ltoe			lmt5			SBIKE			LBIKE			RBIKE			
		X1	Y1	Z1	X2	Y2	Z2	X3	Y3	Z3	X4	Y4	Z4	X5	Y5	Z5	X6	Y6	Z6	X7	Y7	Z7	X8	Y8	Z8	X9	Y9	Z9	X10	Y10	Z10	X11	Y11	Z11	X12	Y12	Z12	X13	Y13	Z13	X14	Y14	Z14	X15	Y15	Z15	X16	Y16	Z16	X17	Y17	Z17	X18	Y18	Z18	X19	Y19	Z19	X20	Y20	Z20	X21	Y21	Z21	X22	Y22	Z22	X23	Y23	Z23	X24	Y24	Z24	X25	Y25	Z25	X26	Y26	Z26	X27	Y27	Z27	X28	Y28	Z28	X29	Y29	Z29	X30	Y30	Z30	X31	Y31	Z31	X32	Y32	Z32	X33	Y33	Z33	X34	Y34	Z34	X35	Y35	Z35	X36	Y36	Z36	X37	Y37	Z37	X38	Y38	Z38	X39	Y39	Z39	X40	Y40	Z40	X41	Y41	Z41	X42	Y42	Z42	X43	Y43	Z43	X44	Y44	Z44	X45	Y45	Z45	X46	Y46	Z46	X47	Y47	Z47	X48	Y48	Z48	X49	Y49	Z49	X50	Y50	Z50	
1751	8.7550	509.446155	1345.975336	-127.081240	511.328134	1333.163354	-402.187821	496.488548	1400.702373	-264.041612	449.927800	1249.375336	-267.520386	455.472890	1059.663257	17.110604	690.983483	912.458738	-78.710245	461.219900	1069.094458	-530.153501	693.731081	917.414880	-452.251574	-69.605690	1173.298018	-277.717000	84.236172	1197.399485	-431.356183	78.129846	1183.681714	-108.419561	125.516847	1157.374604	-385.855765	118.089636	1150.450312	-118.467661	-42.734071	1216.283978	-231.974781	-43.194869	1223.779813	-306.429868	32.196667	1117.641521	-97.723094	63.942673	1111.831726	-461.397451	132.139624	986.601833	-68.799912	201.884927	932.106019	-68.242225	236.958195	854.126283	-67.507675	229.230118	953.559181	-82.415529	304.397209	727.153666	-83.945176	295.006846	711.421732	-198.791736	219.797603	633.114528	-67.699247	182.943466	552.050969	-88.835348	110.475834	506.981553	-103.754184	211.202200	535.482219	-109.917022	24.894751	382.747075	-121.178475	56.390861	381.400979	-203.805310	-46.379780	384.948371	-169.614742	207.936842	222.785038	-148.674147	133.936963	233.637079	-98.511159	135.486264	1053.046414	-461.339778	220.689115	1036.966428	-458.655882	235.816580	1068.801384	-448.876196	287.816237	978.331556	-456.225042	417.801504	885.707822	-425.414061	442.733568	865.729520	-314.921456	399.894271	769.273380	-451.664874	389.413218	684.125151	-432.860138	339.251429	610.921094	-435.951678	412.995334	678.095662	-401.789179	280.050358	479.500070	-436.657029	272.801665	477.233490	-349.206152	197.774228	455.105661	-399.090139	498.200592	441.431490	-399.218962	429.479752	404.467766	-462.564560	-177.553524	937.028406	-279.023331	-3.133296	85.622609	-484.814940	-14.975697	80.360600	-84.250793	
1752	8.7600	507.272438	1348.689435	-125.599028	510.721959	1336.233165	-401.903859	494.492461	1403.852609	-262.836189	449.564999	1252.100328	-266.585968	456.374145	1061.510596	17.421160	690.863982	912.634150	-78.741064	462.642734	1071.592240	-530.314828	694.108804	917.273790	-452.212668	-70.187936	1171.306144	-278.573962	84.412815	1195.874322	-432.173542	77.256422	1182.974245	-109.048092	125.405717	1154.247867	-385.344457	117.332724	1150.221950	-119.179014	-43.752643	1214.537253	-232.923869	-43.759478	1221.621896	-307.627465	31.648324	1116.556134	-98.161269	64.400584	1106.345157	-461.181782	133.503084	987.819943	-69.603638	204.279763	934.857804	-67.945625	240.706173	857.308771	-67.386748	231.191660	956.489738	-82.948133	309.369774	731.027577	-83.197710	300.316024	715.365590	-198.024381	223.248781	638.727783	-67.207360	184.660641	558.618081	-88.527739	111.063397	515.078868	-103.784094	212.504921	541.574712	-109.769894	22.687985	393.425053	-121.796920	54.284428	391.586381	-204.161851	-48.544858	396.737260	-169.931551	203.314122	230.870711	-148.825381	129.643835	242.909425	-98.580777	135.970611	1047.626015	-461.390362	220.965702	1030.224263	-458.595015	236.593026	1061.879199	-449.121472	287.223677	970.533767	-455.687608	414.638178	875.370571	-424.503514	440.193962	855.093159	-314.345480	397.752815	757.843193	-451.473731	388.876941	672.696280	-432.211088	340.443955	598.436273	-435.172620	412.508954	667.279534	-400.932402	282.865840	466.985315	-436.642157	276.169453	463.916074	-348.698367	200.727128	441.173103	-399.360988	501.629498	433.063920	-399.005044	433.674313	394.913664	-462.482658	-177.534161	936.986985	-279.092914	-3.245963	85.475689	-484.697414	-14.982673	80.348629	-84.253686	
1753	8.7650	505.026828	1351.717405	-124.139943	510.235450	1339.622673	-401.820465	492.517415	1407.125235	-261.565536	449.256292	1254.923503	-265.692956	457.363444	1063.513271	17.862174	690.911768	912.961097	-78.631088	464.287011	1074.257320	-530.367532	694.519313	917.169761	-452.177046	-70.284917	1169.176635	-280.466761	84.565539	1194.473490	-432.946150	76.416349	1182.496825	-109.629182	126.245776	1151.891266	-386.500049	116.597391	1150.100882	-119.919886	-44.821121	1212.926383	-233.846594	-44.895488	1219.746863	-308.478862	31.109837	1115.733344	-98.440488	64.905296	1101.120916	-460.966947	134.728383	989.367518	-69.851076	206.388980	937.237169	-68.992230	244.245680	860.609426	-66.922869	232.968941	959.854847	-83.656306	314.091756	734.859671	-82.592588	305.328337	719.411209	-197.330142	226.574522	644.577755	-66.871306	187.808768	565.640166	-87.665735	112.089054	523.341919	-103.986027	213.766825	547.644420	-109.607149	20.252569	403.431588	-122.524647	52.442664	401.610396	-204.469537	-50.408779	408.340969	-170.129333	199.239098	239.472323	-149.020968	125.829571	252.457464	-98.641153	136.618695	1042.444713	-461.704677	221.195899	1023.451310	-458.323166	237.465685	1055.230424	-449.372409	286.580353	963.155760	-455.416149	411.341523	865.100257	-423.986576	435.493388	844.457170	-314.268156	395.240591	747.627773	-451.433732	387.882422	662.512399	-431.985406	340.900967	587.370382	-434.744269	411.721862	657.496286	-401.132345	285.228007	454.853285	-436.820773	279.032966	452.642428	-348.595813	203.596135	427.977797	-399.714684	504.642984	424.317059	-398.896736	437.301911	385.040597	-462.334255	-177.584612	936.954868	-279.162203	-3.216342	85.399917	-484.730197	-14.985777	80.327385	-84.257671	
1754	8.7700	502.886674	1354.471796	-122.600778	509.626220	1342.325354	-401.345937	490.491570	1410.470004	-260.303294	448.809063	1257.829415	-264.780715	458.403675	1065.630408	18.498955	691.108641	913.479779	-78.410085	466.089548	1077.223725	-530.406727	694.912508	917.123270	-452.139221	-70.695631	1167.397173	-281.311176	84.680975	1193.236564	-433.629147	75.472494	1182.139664	-110.609487	126.827240	1150.499821	-387.266662	115.883951	1150.099187	-120.686671	-48.924747	1212.897349	-232.603512	-46.446349	1218.059935	-308.579053	30.845035	1114.930069	-99.048473	65.464507	1096.622786	-460.753116	135.984260	990.735665	-71.301354	208.477606	940.094544	-68.880008	247.587082	863.969343	-66.462297	234.354242	962.054671	-84.505213	318.728621	738.986037	-82.041353	310.495390	723.504100	-196.387205	229.649344	650.404631	-66.658193	189.409542	572.435500	-87.591264	112.846131	531.671143	-104.017278	214.987226	553.868596	-109.665778	18.729761	413.919861	-122.831158	50.389773	412.304167	-204.977813	-52.184357	419.825063	-170.449455	195.865834	248.836716	-149.086297	122.657924	262.399620	-98.692634	137.362493	1037.752218	-462.238280	221.569863	1017.247484	-458.447303	238.352194	1048.780970	-449.651919	285.850271	955.872256	-454.993796	407.750952	855.490684	-423.780775	431.770454	835.040353	-313.894718	392.513744	738.049111	-451.090356	386.570983	652.764404	-432.076766	340.800836	576.962805	-434.859256	410.728222	648.075549	-401.421244	287.295297	442.985809	-437.017924	281.553161	441.433902	-348.812793	206.391774	414.971411	-399.836954	507.228944	415.009664	-398.817016	440.371423	375.006202	-462.312269	-177.601526	936.906981	-279.295043	-3.217822	85.369193	-484.729589	-14.982720	80.334380	-84.245407	
1755	8.7750	500.667995	1357.538217	-121.178958	508.767892	1345.645806	-400.460243	488.465038	1413.910071	-259.099891	448.373347	1260.796789	-263.842495	459.505261	1067.814423	19.291502	691.238727	913.925218	-78.163508	468.013656	1080.258566	-530.336485	695.351176	917.138728	-452.152453	-71.013548	1165.918667	-282.220908	84.932764	1192.384064	-434.399707	74.533596	1182.082406	-111.025116	127.413991	1149.745641	-388.166211	115.192975	1150.226094	-121.474763	-49.689773	1211.812062	-233.725075	-47.650520	1216.164939	-310.007675	30.686591	1114.340800	-99.923912	65.932485	1092.813340	-460.642319	137.093187	992.265195	-72.038795	210.326120	942.721102	-69.791417	250.660138	867.449073	-66.142342	236.070965	965.736205	-84.006976	323.180112	743.223359	-81.652571	315.299125	727.700964	-195.876048	232.823386	656.516815	-66.504116	189.575606	578.917921	-88.377459	113.834190	540.111693	-104.040653	216.431875	560.402709	-109.582318	17.467443	424.457668	-123.212048	49.190044	422.315945	-205.489655	-53.750505	431.080488	-170.773324	193.098222	258.295602	-149.269396	119.994176	272.425212	-98.719649	138.073657	1033.327538	-462.915219	221.885146	1011.359128	-458.624757	239.220983	1042.593537	-449.954421	285.004211	948.767507	-454.709266	403.896107	846.525873	-423.881096	427.806954	826.426524	-313.234796	389.489882	728.879915	-450.893131	385.007434	643.267596	-432.301998	340.367288	566.760469	-435.186700	409.253067	638.810342	-401.651027	289.288090	431.317873	-437.314569	283.278615	428.939402	-348.082764	208.493093	402.645599	-400.325558	509.401207	405.384334	-398.740469	442.958622	364.776321	-462.270897	-177.630334	936.891971	-279.529627	-3.227658	85.338596	-484.747360	-14.983112	80.332915	-84.263930	
1756	8.7800	498.644997	1360.408268	-119.632733	506.773217	1348.479048	-398.278099	486.500999	1417.458257	-257.901946	447.952047	1264.041799	-263.047545	460.693806	1070.007524	20.311770	690.718155	913.996728	-77.780218	470.054704	1083.458724	-530.221402	695.793126	917.175337	-452.244958	-71.201753	1164.715193	-283.018911	85.239955	1191.841090	-435.129676	73.551600	1182.304197	-111.428267	128.007508	1149.153928	-389.077639	114.525484	1150.487444	-122.278800	-50.149281	1211.174360	-235.194480	-48.497082	1214.853401	-310.552351	30.536831	1114.046269	-100.525480	66.348338	1089.906612	-460.617925	138.195047	994.093703	-72.467701	212.084888	945.591977	-70.215070	253.631657	871.037506	-65.910162	237.545802	968.914579	-84.634377	327.545253	747.712703	-81.410693	319.972806	732.281758	-195.577051	236.027690	662.796739	-66.423835	190.907756	585.926008	-89.158374	114.936808	548.676468	-104.123381	217.891719	566.969269	-109.744317	16.541849	434.966253	-123.549828	47.882241	432.719669	-205.933720	-55.120101	442.488262	-171.120931	190.855634	268.242194	-149.453238	118.017792	282.852700	-98.621053	138.707465	1029.472048	-463.554990	222.046780	1005.726786	-458.924459	239.977206	1036.632832	-450.283325	283.806035	941.973406	-454.554817	399.585804	838.142797	-424.203852	423.557060	817.953605	-313.010025	386.461597	719.696360	-450.978222	383.166414	634.045844	-432.589773	339.529878	556.958243	-435.741072	407.381692	629.726155	-401.905902	290.825714	420.075733	-437.890265	284.475584	418.017308	-348.563488	210.205432	392.008459	-402.023845	511.079634	395.394429	-398.482384	445.081256	354.383456	-462.146434	-177.682919	936.874143	-279.702737	-3.231574	85.347663	-484.748031	-14.997115	80.327227	-84.275934	
